<svg width="75" height="47" viewBox="0 0 75 47" fill="none" xmlns="http://www.w3.org/2000/svg">
<path d="M12.936 28.352V27.272C12.936 25.592 11.136 25.184 9.24 25.112V24.8C11.184 24.8 14.712 24.488 14.712 20.24C14.712 16.856 11.88 14.96 8.376 14.96H1.248V32H4.224V25.952H6.984C8.976 25.952 9.96 27.08 9.96 28.136V28.952C9.96 31.568 12.12 32.192 14.808 32.192V29.696C14.808 29.696 12.936 29.768 12.936 28.352ZM8.016 23.528H4.224V17.528H8.016C10.272 17.528 11.664 18.632 11.664 20.576C11.664 22.544 10.128 23.528 8.016 23.528ZM19.7981 29.408V14.96H16.8221V32H27.9101V29.408H19.7981Z" fill="#F4F4F4"/>
<path opacity="0.7" fill-rule="evenodd" clip-rule="evenodd" d="M7 1H74V46H7V39H6V46V47H7H74H75V46V1V0H74H7H6V1V10H7V1Z" fill="#F4F4F4"/>
</svg>
